<svg width="64" height="64"  fill="none" xmlns="http://www.w3.org/2000/svg">
<mask id="mask0_1472_2789" style="mask-type:alpha" maskUnits="userSpaceOnUse" x="0" y="0" width="64" height="64">
<path fillRule="evenodd" clipRule="evenodd" d="M32 0C49.6731 0 64 14.3269 64 32C64 49.6731 49.6731 64 32 64C14.3269 64 0 49.6731 0 32C0 14.3269 14.3269 0 32 0ZM32 6.67717C46.3333 6.67717 57.9528 18.2966 57.9528 32.6299C57.9528 46.9632 46.3333 58.5827 32 58.5827C17.6667 58.5827 6.04724 46.9632 6.04724 32.6299C6.04724 18.2966 17.6667 6.67717 32 6.67717Z" fill="#C4C4C4"/>
</mask>
<g mask="url(#mask0_1472_2789)">
<rect width="64" height="64" transform="matrix(1 0 0 -1 0 64)" fill="url(#paint0_angular_1472_2789)"/>
<circle r="3.33858" transform="matrix(1 0 0 -1 32.0629 3.3386)" fill="#5A607F"/>
</g>
<path d="M32.063 48.5039V15.3701L12.5984 31.937L32.063 48.5039ZM28.6488 40.7181L18.3307 31.937L28.6488 23.1559V40.7181Z" fill="#5A607F"/>
<path d="M35.9055 18.6456V32.1007L43.8551 25.411L35.9055 18.6456Z" fill="#5A607F"/>
<path d="M46.8661 27.9685L35.9055 37.1906V45.1528L51.4772 31.8992L46.8661 27.9685Z" fill="#5A607F"/>
<defs>
<radialGradient id="paint0_angular_1472_2789" cx="0" cy="0" r="1" gradientUnits="userSpaceOnUse" gradientTransform="translate(32 32) rotate(90) scale(32)">
<stop stopColor="#5A607F"/>
<stop offset="0.628125" stopColor="#131523" stopOpacity="0"/>
<stop offset="1" stopColor="#131523" stopOpacity="0"/>
</radialGradient>
</defs>
</svg>
